<?xml version="1.0" encoding="UTF-8" standalone="no"?>
<!-- Generator: Adobe Illustrator 20.1.0, SVG Export Plug-In . SVG Version: 6.00 Build 0)  -->

<svg
   version="1.1"
   id="Layer_1"
   x="0px"
   y="0px"
   viewBox="0 0 400 225"
   style="enable-background:new 0 0 400 225;"
   xml:space="preserve"
   sodipodi:docname="icon.svg"
   inkscape:version="1.4 (e7c3feb100, 2024-10-09)"
   xmlns:inkscape="http://www.inkscape.org/namespaces/inkscape"
   xmlns:sodipodi="http://sodipodi.sourceforge.net/DTD/sodipodi-0.dtd"
   xmlns="http://www.w3.org/2000/svg"
   xmlns:svg="http://www.w3.org/2000/svg"
   xmlns:rdf="http://www.w3.org/1999/02/22-rdf-syntax-ns#"
   xmlns:cc="http://creativecommons.org/ns#"
   xmlns:dc="http://purl.org/dc/elements/1.1/"><metadata
   id="metadata919"><rdf:RDF><cc:Work
       rdf:about=""><dc:format>image/svg+xml</dc:format><dc:type
         rdf:resource="http://purl.org/dc/dcmitype/StillImage" /></cc:Work></rdf:RDF></metadata><defs
   id="defs917">
		
		
	</defs><sodipodi:namedview
   pagecolor="#ffffff"
   bordercolor="#666666"
   borderopacity="1"
   objecttolerance="10"
   gridtolerance="10"
   guidetolerance="10"
   inkscape:pageopacity="0"
   inkscape:pageshadow="2"
   inkscape:window-width="1920"
   inkscape:window-height="1011"
   id="namedview915"
   showgrid="false"
   inkscape:zoom="1.1189965"
   inkscape:cx="103.66431"
   inkscape:cy="163.09256"
   inkscape:window-x="0"
   inkscape:window-y="0"
   inkscape:window-maximized="1"
   inkscape:current-layer="Layer_2"
   inkscape:showpageshadow="2"
   inkscape:pagecheckerboard="0"
   inkscape:deskcolor="#d1d1d1" />
<style
   type="text/css"
   id="style868">
	.st0{fill:#FFC234;}
	.st1{fill:#E1AE37;}
	.st2{fill:#E29563;}
	.st3{fill:#3F4040;}
	.st4{fill:#FFFFFF;}
	.st5{fill:#D66F6E;}
	.st6{fill:#C9C8CB;}
	.st7{fill:#F7A896;}
	.st8{fill:#F7A896;fill-opacity:0.5;}
	.st9{fill:#EF5331;}
	.st10{opacity:0.8;fill:#C9C8CB;enable-background:new    ;}
	.st11{fill:none;}
</style>
<title
   id="title870">questionaire</title>
<g
   id="Layer_2">
	<rect
   style="fill:none"
   y="0"
   x="0"
   id="rect910"
   height="225"
   width="400"
   class="st11" />
<g
   id="g3"
   transform="translate(-0.86535607,8.1335645)"><g
     id="g1"
     transform="translate(0.86548215,6)"><path
       inkscape:connector-curvature="0"
       id="path890-7"
       d="M 125.70117,107.50039 C 120.40118,107.50039 116.1,111.8 116,117.1 v 36.76562 19.93555 c 0,1.9875 0.60527,3.83301 1.64063,5.36523 3.1e-4,4.6e-4 -3.1e-4,0.002 0,0.002 0.1723,0.2549 0.35738,0.50159 0.55273,0.73828 0.19599,0.23745 0.40353,0.46414 0.62109,0.68164 0.21688,0.21681 0.44298,0.42377 0.67969,0.61914 3.7e-4,3.1e-4 0.002,-3.1e-4 0.002,0 0.47384,0.39095 0.98567,0.7378 1.5293,1.0332 7.9e-4,4.3e-4 10e-4,0.002 0.002,0.002 0.54341,0.2951 1.11846,0.53977 1.71874,0.72657 5.9e-4,1.8e-4 0.001,-1.9e-4 0.002,0 0.29999,0.0933 0.60619,0.17249 0.91797,0.23633 6.2e-4,1.2e-4 0.001,-1.3e-4 0.002,0 0.3118,0.0638 0.62919,0.11376 0.95117,0.14648 6.5e-4,7e-5 0.001,-7e-5 0.002,0 0.32201,0.0327 0.64793,0.0488 0.97852,0.0488 6.6e-4,0 0.001,0 0.002,0 h 43.09961 13.59961 c 5.3,-0.10001 9.59961,-4.39922 9.59961,-9.69922 v -3.4082 l 0.0996,0.008 v -27.90039 l -10.5,10.5 v 0.96484 h -0.0996 v 18.93555 0.0996 H 167.20117 126.5 v -19.0354 -35.86523 h 0.0996 39.10156 L 174.5996,109.1 c 0.6,-0.6 1.20039,-1.09961 1.90039,-1.59961 z"
       style="fill:#f7a896;stroke-width:1" /><path
       style="fill:#ef5331;stroke-width:1"
       inkscape:connector-curvature="0"
       id="path894-9"
       d="m 192.50039,127.00065 -28,27.99999 -5.3,5.30001 c -1.5,1.4 -3.8,1.4 -5.3,0 l -5.3,-5.30001 -14,-13.99999 c -1.4,-1.5 -1.4,-3.8 0,-5.3 l 5.3,-5.30001 c 1.5,-1.39999 3.8,-1.39999 5.3,0 l 11.4,11.4 25.4,-25.29999 c 1.5,-1.4 3.8,-1.4 5.3,0 l 5.3,5.3 c 1.4,1.4 1.4,3.8 -0.1,5.2 z"
       class="st9" /><path
       id="path896-5"
       d="m 216.20117,120.39994 c -2.4,0 -4.40039,1.90039 -4.40039,4.40039 v 1.79883 c 0,2.4 2.00039,4.40039 4.40039,4.40039 h 47.00195 v -10.59961 z"
       style="fill:#f7a896;stroke-width:1"
       inkscape:connector-curvature="0" /><path
       id="path896-6"
       d="m 216.20117,139.30033 c -2.4,0 -4.40039,1.90039 -4.40039,4.40039 v 1.79883 c 0,2.4 2.00039,4.40039 4.40039,4.40039 h 47.00195 v -10.59961 z"
       style="fill:#f7a896;stroke-width:1"
       inkscape:connector-curvature="0" /><path
       id="path896-6-8"
       d="m 216.20117,159.89994 c -2.4,0 -4.40039,1.90039 -4.40039,4.40039 v 1.79883 c 0,2.4 2.00039,4.40039 4.40039,4.40039 h 47.00195 v -10.59961 z"
       style="fill:#f7a896;stroke-width:1"
       inkscape:connector-curvature="0" /><path
       id="path896-5-8"
       d="m 232.17969,120.39994 v 10.59961 h 47.41992 c 2.4,0 4.40039,-2.00039 4.40039,-4.40039 v -1.79883 c 0,-2.4 -2.00039,-4.40039 -4.40039,-4.40039 z"
       style="fill:#f7a896;stroke-width:1"
       inkscape:connector-curvature="0" /><path
       id="path896-6-9"
       d="m 232.17969,139.29838 v 10.59961 h 47.41992 c 2.4,0 4.40039,-2.00039 4.40039,-4.40039 v -1.79883 c 0,-2.4 -2.00039,-4.40039 -4.40039,-4.40039 z"
       style="fill:#f7a896;stroke-width:1"
       inkscape:connector-curvature="0" /><path
       id="path896-6-8-8"
       d="m 232.17969,159.89994 v 10.59961 h 47.41992 c 2.4,0 4.40039,-2.00039 4.40039,-4.40039 v -1.79883 c 0,-2.4 -2.00039,-4.40039 -4.40039,-4.40039 z"
       style="fill:#f7a896;stroke-width:1"
       inkscape:connector-curvature="0" /></g><g
     id="g2"><path
       id="path890-7-6"
       style="fill:#f7a896;stroke-width:1"
       d="m 126.46484,19.332031 c -1.9875,0 -3.83301,0.605265 -5.36523,1.640625 h -0.002 c -0.2549,0.1723 -0.50159,0.357385 -0.73828,0.552735 -0.23745,0.19599 -0.46415,0.403533 -0.68165,0.621093 -0.21681,0.21688 -0.42377,0.442978 -0.61914,0.679688 v 0.002 c -0.39095,0.47384 -0.7378,0.985667 -1.0332,1.529297 l -0.002,0.002 c -0.2951,0.54341 -0.53976,1.11847 -0.72656,1.71875 v 0.002 c -0.0933,0.29999 -0.17249,0.606189 -0.23633,0.917969 V 27 c -0.0638,0.3118 -0.11377,0.629192 -0.14649,0.951172 v 0.002 c -0.0327,0.32201 -0.0488,0.647926 -0.0488,0.978516 v 0.002 36.763672 6.335937 13.599609 c 0,1.9875 0.60527,3.833015 1.64063,5.365235 V 91 c 0.1723,0.2549 0.35738,0.501591 0.55273,0.738281 0.19599,0.23745 0.40354,0.464141 0.6211,0.681641 0.21688,0.21681 0.44297,0.42377 0.67969,0.61914 h 0.002 c 0.47384,0.390951 0.98567,0.737804 1.52929,1.033204 l 0.002,0.002 c 0.54341,0.2951 1.11847,0.539762 1.71875,0.726562 h 0.002 c 0.29999,0.0933 0.60619,0.172488 0.91797,0.236328 h 0.002 c 0.3118,0.0638 0.6292,0.113765 0.95118,0.146485 h 0.002 c 0.32201,0.0327 0.64792,0.04883 0.97851,0.04883 h 0.002 0.0976 3.40821 l -0.008,0.09961 h 27.90039 l -0.0996,-0.09961 h 11.80079 13.59961 c 5.3,-0.10001 9.5996,-4.399219 9.5996,-9.699219 V 82.125 l 0.0996,0.0078 V 54.23241 l -0.0996,0.09961 V 29.033203 c 0,-5.29999 -4.2996,-9.601172 -9.5996,-9.701172 h -5.80079 -30.96484 -19.83398 z m 0.90039,10.5 h 0.0996 18.93555 20.16602 15.69921 v 0.09961 35.765625 3.335937 15.599609 0.09961 h -14.1992 -21.66602 -19.03516 V 70.533203 65.697266 Z" /><path
       id="path896-5-5"
       d="m 217.06665,32.231403 c -2.4,0 -4.40039,1.90039 -4.40039,4.40039 v 1.79883 c 0,2.4 2.00039,4.40039 4.40039,4.40039 h 47.00195 v -10.59961 z"
       style="fill:#f7a896;stroke-width:1"
       inkscape:connector-curvature="0" /><path
       id="path896-6-3"
       d="m 217.06665,51.131793 c -2.4,0 -4.40039,1.90039 -4.40039,4.40039 v 1.79883 c 0,2.4 2.00039,4.40039 4.40039,4.40039 h 47.00195 v -10.59961 z"
       style="fill:#f7a896;stroke-width:1"
       inkscape:connector-curvature="0" /><path
       id="path896-6-8-5"
       d="m 217.06665,71.731403 c -2.4,0 -4.40039,1.90039 -4.40039,4.40039 v 1.79883 c 0,2.4 2.00039,4.40039 4.40039,4.40039 h 47.00195 v -10.59961 z"
       style="fill:#f7a896;stroke-width:1"
       inkscape:connector-curvature="0" /><path
       id="path896-5-8-6"
       d="m 233.04517,32.231403 v 10.59961 h 47.41992 c 2.4,0 4.40039,-2.00039 4.40039,-4.40039 v -1.79883 c 0,-2.4 -2.00039,-4.40039 -4.40039,-4.40039 z"
       style="fill:#f7a896;stroke-width:1"
       inkscape:connector-curvature="0" /><path
       id="path896-6-9-2"
       d="m 233.04517,51.129843 v 10.59961 h 47.41992 c 2.4,0 4.40039,-2.00039 4.40039,-4.40039 v -1.79883 c 0,-2.4 -2.00039,-4.40039 -4.40039,-4.40039 z"
       style="fill:#f7a896;stroke-width:1"
       inkscape:connector-curvature="0" /><path
       id="path896-6-8-8-9"
       d="m 233.04517,71.731403 v 10.59961 h 47.41992 c 2.4,0 4.40039,-2.00039 4.40039,-4.40039 v -1.79883 c 0,-2.4 -2.00039,-4.40039 -4.40039,-4.40039 z"
       style="fill:#f7a896;stroke-width:1"
       inkscape:connector-curvature="0" /></g></g></g>
</svg>
